<svg id="Layer_1" data-name="Layer 1" xmlns="http://www.w3.org/2000/svg" viewBox="0 0 1080 1080"><defs><style>.cls-1{fill:#fff;}.cls-2{fill:#f5921e;}</style></defs><title>GH 1 YW</title><path class="cls-1" d="M584.69,394.89l-8.84,8.27A19.07,19.07,0,0,0,569,396a16.93,16.93,0,0,0-21.13,3.13,18,18,0,0,0-5.34,13,18.65,18.65,0,0,0,5.34,13.47,17.19,17.19,0,0,0,12.85,5.53,16.23,16.23,0,0,0,7.88-2.07q3.78-2.07,6.09-7.76H560.06v-12h28.49v8c0,4.1-1.41,8.52-4.24,13.23a25.6,25.6,0,0,1-11.14,10.35,32.49,32.49,0,0,1-14,3.26,28.57,28.57,0,0,1-21.58-9.26q-8.79-9.26-8.79-22.89a30.29,30.29,0,0,1,9-22.1,29.52,29.52,0,0,1,21.79-9.17Q575.94,380.64,584.69,394.89Z"/><path class="cls-1" d="M598.32,381.49h20.34q9.27,0,14.66,4.89t5.39,13.2a22.82,22.82,0,0,1-2.47,9.87q-2.47,5.12-9.12,8l17.28,25.74H629.11l-16-23.89h-1.5v23.89H598.32Zm13.4,11v16.08h2.88q10.42,0,10.43-8.51a6.58,6.58,0,0,0-2.72-5.53q-2.7-2-7.52-2Z"/><path class="cls-1" d="M648.72,412.33q0-13.68,9-22.59a29.57,29.57,0,0,1,21.46-8.91q13.74,0,22.71,9t9,22.63Q710.92,426,702,435t-22.38,9q-13.5,0-22.22-8.93T648.72,412.33Zm31.13-19.18a15.3,15.3,0,0,0-12.51,5.36q-4.76,5.49-4.75,14.19a19.71,19.71,0,0,0,4.84,13.64,15.74,15.74,0,0,0,12.23,5.41,16,16,0,0,0,12.53-5.34q4.77-5.34,4.77-14.08t-4.68-13.82A16.29,16.29,0,0,0,679.85,393.15Z"/><path class="cls-1" d="M716.38,381.49h11.84l9.95,42.07,10.37-42.07H757l10.22,42.26,10.14-42.26H789.2l-15,61.73h-12.5l-9.06-37.85-9.06,37.85H731.16Z"/><path class="cls-1" d="M793.1,381.49h41.51V394.6H820.46v48.62h-13.3V394.6H793.1Z"/><path class="cls-1" d="M843.31,381.49h13.31v23.79h21.86V381.49h13.3v61.73h-13.3V418.68H856.62v24.54H843.31Z"/><path class="cls-1" d="M532.08,461.15h13.31v23.79h21.86V461.15h13.3v61.73h-13.3V498.34H545.39v24.54H532.08Z"/><path class="cls-1" d="M614.77,461.15h10.31l25.15,61.73H636.84l-4.94-12.13H608.21l-4.84,12.13H590.05Zm5.16,20.22-7.26,18.19h14.67Z"/><path class="cls-1" d="M700.91,464.44v15.05q-10-6-17.54-6a15.17,15.17,0,0,0-12,5.17q-4.51,5.17-4.52,13.92,0,8.26,4.75,13.23t12.7,5q6.94,0,16.64-5.59v14.95q-10.86,3.61-18.1,3.62a28.1,28.1,0,0,1-21.16-9.15,31.15,31.15,0,0,1-8.7-22.31,31.62,31.62,0,0,1,8.87-22.68,28.66,28.66,0,0,1,21.55-9.29A43.51,43.51,0,0,1,700.91,464.44Z"/><path class="cls-1" d="M711.2,461.15h13.31v26.07h.19l20.43-26.07h16.33L738,490.62l24.44,32.26h-16L724.7,494h-.19v28.89H711.2Z"/><path class="cls-1" d="M772.13,461.15h34.75v12.22H785.44v12.46h21.44v12H785.44v12.79h21.44v12.22H772.13Z"/><path class="cls-1" d="M818,461.15h20.33q9.27,0,14.66,4.89t5.39,13.2a22.61,22.61,0,0,1-2.47,9.87c-1.65,3.42-4.69,6.09-9.11,8l17.27,25.73H848.8l-16-23.88h-1.51v23.88H818Zm13.4,11v16.08h2.88q10.43,0,10.42-8.51A6.54,6.54,0,0,0,842,474.2q-2.71-2.06-7.52-2.05Z"/><path class="cls-1" d="M908.94,466.75l-8.27,9.07q-6.54-3.85-9.4-3.86a5.09,5.09,0,0,0-3.81,1.67,5.53,5.53,0,0,0-1.6,4q0,4.56,8.27,7.9a58.12,58.12,0,0,1,9.17,4.68,16.83,16.83,0,0,1,5.2,5.81,16.13,16.13,0,0,1,2.09,8q0,7.94-6.42,13.82A21.7,21.7,0,0,1,889,523.73q-9.59,0-19-9l8.75-10.2q5.87,6.06,11,6.06a6.64,6.64,0,0,0,4.61-2.13,6.25,6.25,0,0,0,2.21-4.48q0-4.83-10.21-8.51a33.6,33.6,0,0,1-8.27-4A14.17,14.17,0,0,1,874,486a16.75,16.75,0,0,1-1.67-7.26q0-8.22,5.36-13.35t14-5.13A24.35,24.35,0,0,1,908.94,466.75Z"/><path class="cls-2" d="M636.93,559.06h-6v11.17h6c4.53,0,6.82-2.11,6.82-5.58S641.46,559.06,636.93,559.06Z"/><polygon class="cls-2" points="551.26 572.56 561.42 572.56 556.34 560.29 551.26 572.56"/><polygon class="cls-2" points="738.39 572.56 748.56 572.56 743.48 560.29 738.39 572.56"/><path class="cls-2" d="M526,540v60.13H777.73V540Zm40.62,45.06-2.84-6.86H548.87L546,585.06h-7.6l14.28-32h7.33l14.32,32ZM610.18,559h-16.8v8.47h14.83v5.95H593.38v11.67H586V553h24.21Zm33.71,26.09-6.18-8.92h-6.83v8.92h-7.41V553h13.87c8.56,0,13.92,4.44,13.92,11.63a10.41,10.41,0,0,1-6.6,10.11l7.19,10.3Zm28.89,0h-7.42V553h7.42Zm31.59-5.76a10.21,10.21,0,0,0,8.06-3.81l4.76,4.4c-3,3.71-7.65,5.72-13.23,5.72-9.94,0-17.35-6.91-17.35-16.57S694,552.47,704,552.47c5.54,0,10.17,2,13.19,5.67l-4.76,4.4a10.31,10.31,0,0,0-8.06-3.75,10.26,10.26,0,0,0,0,20.51Zm49.36,5.76-2.84-6.86H736l-2.83,6.86h-7.6l14.28-32h7.32l14.33,32Z"/><rect class="cls-2" x="207.23" y="352.39" width="60.39" height="173.26"/><rect class="cls-2" x="169.41" y="402.91" width="21.3" height="102.2"/><rect class="cls-2" x="525.97" y="617.38" width="21.3" height="94.21"/><rect class="cls-2" x="285.39" y="344.74" width="102.7" height="390.52"/><rect class="cls-2" x="407.19" y="380.47" width="102.7" height="331.12"/></svg>