<svg width="235" height="235" viewBox="0 0 235 235" fill="none" xmlns="http://www.w3.org/2000/svg">
<path fill-rule="evenodd" clip-rule="evenodd" d="M119.359 72.1432L117.38 0.478516L115.401 72.1432C115.245 77.7942 114.046 83.1821 111.989 88.1214C105.165 86.372 98.9044 82.0487 94.8575 75.1703L82.4073 54.0089L94.0167 75.643C102.045 90.6031 94.9867 108.113 80.9421 114.507C78.0147 115.197 74.976 115.601 71.8571 115.687L0.192383 117.666L71.8571 119.645C75.0674 119.733 78.1927 120.159 81.1991 120.887C94.8699 127.718 101.355 145.222 93.0533 159.878L80.9521 181.241L93.8831 160.37C98.2602 153.305 104.974 149.065 112.161 147.629C114.113 152.454 115.249 157.697 115.401 163.189L117.38 234.853L119.359 163.189C119.512 157.648 120.667 152.361 122.651 147.501C130.306 148.834 137.485 153.315 141.959 160.919L154.409 182.081L142.8 160.447C133.741 143.565 143.892 123.437 161.616 119.698C162.043 119.675 162.472 119.657 162.902 119.645L189.802 118.902L191.866 118.885L191.183 118.864L234.567 117.666L162.902 115.687C160.077 115.609 157.318 115.27 154.648 114.694C141.645 107.535 135.66 90.5167 143.763 76.212L155.865 54.849L142.934 75.7201C138.228 83.3147 130.823 87.6446 123.032 88.7363C120.816 83.6304 119.521 78.0296 119.359 72.1432Z" fill="white"/>
</svg>
