<svg width="251" height="38" viewBox="0 0 251 38" fill="none" xmlns="http://www.w3.org/2000/svg">
<path d="M86.9785 29.478C84.9668 29.478 83.1045 28.99 81.3916 28.0141C79.6986 27.0381 78.3541 25.6937 77.3582 23.9807C76.3823 22.2678 75.8943 20.3756 75.8943 18.3042C75.8943 16.2327 76.3823 14.3406 77.3582 12.6276C78.3541 10.9147 79.6986 9.57027 81.3916 8.5943C83.1045 7.61834 84.9668 7.13035 86.9785 7.13035C88.552 7.13035 90.0259 7.4092 91.4002 7.9669C92.7945 8.52459 93.9397 9.31134 94.836 10.3271L93.0136 12.1496C92.3364 11.3131 91.46 10.6757 90.3844 10.2375C89.3288 9.77941 88.1935 9.55035 86.9785 9.55035C85.4847 9.55035 84.0805 9.91883 82.7659 10.6558C81.4712 11.3728 80.4256 12.3986 79.6289 13.7331C78.8521 15.0476 78.4637 16.5713 78.4637 18.3042C78.4637 20.037 78.8521 21.5707 79.6289 22.9052C80.4256 24.2197 81.4712 25.2455 82.7659 25.9825C84.0805 26.6995 85.4847 27.058 86.9785 27.058C88.4126 27.058 89.6076 26.8389 90.5637 26.4007C91.5396 25.9426 92.3861 25.3451 93.1032 24.6081C93.621 24.0504 94.0393 23.3732 94.358 22.5765C94.6767 21.7798 94.8659 20.9134 94.9257 19.9773H87.0382V17.617H97.3158C97.4154 18.1747 97.4652 18.6926 97.4652 19.1706C97.4652 20.4852 97.256 21.7699 96.8378 23.0247C96.4195 24.2596 95.7522 25.3451 94.836 26.2812C92.8243 28.4124 90.2052 29.478 86.9785 29.478ZM101.156 7.60838H107.64C109.83 7.60838 111.743 8.06649 113.376 8.9827C115.009 9.879 116.264 11.1338 117.14 12.7471C118.017 14.3605 118.455 16.2128 118.455 18.3042C118.455 20.3955 118.017 22.2479 117.14 23.8612C116.264 25.4746 115.009 26.7393 113.376 27.6556C111.743 28.5519 109.83 29 107.64 29H101.156V7.60838ZM107.64 26.58C110.169 26.58 112.171 25.853 113.645 24.399C115.119 22.945 115.856 20.9134 115.856 18.3042C115.856 15.695 115.119 13.6634 113.645 12.2094C112.171 10.7554 110.169 10.0284 107.64 10.0284H103.696V26.58H107.64ZM132.143 29.478C130.132 29.478 128.269 28.99 126.557 28.0141C124.864 27.0381 123.519 25.6937 122.523 23.9807C121.547 22.2678 121.059 20.3756 121.059 18.3042C121.059 16.2327 121.547 14.3406 122.523 12.6276C123.519 10.9147 124.864 9.57027 126.557 8.5943C128.269 7.61834 130.132 7.13035 132.143 7.13035C133.717 7.13035 135.191 7.4092 136.565 7.9669C137.959 8.52459 139.105 9.31134 140.001 10.3271L138.179 12.1496C137.501 11.3131 136.625 10.6757 135.549 10.2375C134.494 9.77941 133.358 9.55035 132.143 9.55035C130.65 9.55035 129.245 9.91883 127.931 10.6558C126.636 11.3728 125.591 12.3986 124.794 13.7331C124.017 15.0476 123.629 16.5713 123.629 18.3042C123.629 20.037 124.017 21.5707 124.794 22.9052C125.591 24.2197 126.636 25.2455 127.931 25.9825C129.245 26.6995 130.65 27.058 132.143 27.058C133.578 27.058 134.773 26.8389 135.729 26.4007C136.705 25.9426 137.551 25.3451 138.268 24.6081C138.786 24.0504 139.204 23.3732 139.523 22.5765C139.842 21.7798 140.031 20.9134 140.091 19.9773H132.203V17.617H142.481C142.58 18.1747 142.63 18.6926 142.63 19.1706C142.63 20.4852 142.421 21.7699 142.003 23.0247C141.584 24.2596 140.917 25.3451 140.001 26.2812C137.989 28.4124 135.37 29.478 132.143 29.478ZM153.265 7.60838H155.805V29H153.265V7.60838ZM167.73 29.478C166.555 29.478 165.51 29.2291 164.593 28.7311C163.697 28.2133 163.02 27.5659 162.562 26.7891H162.442V29H160.022V7.60838H162.562V14.3306L162.442 16.3622H162.562C163.04 15.6053 163.727 14.9779 164.623 14.48C165.52 13.9621 166.555 13.7032 167.73 13.7032C169.005 13.7032 170.18 14.0518 171.256 14.7489C172.331 15.4261 173.188 16.3622 173.825 17.5573C174.463 18.7523 174.781 20.0968 174.781 21.5906C174.781 23.0844 174.463 24.4289 173.825 25.6239C173.188 26.819 172.331 27.7651 171.256 28.4622C170.18 29.1394 169.005 29.478 167.73 29.478ZM167.342 27.1775C168.218 27.1775 169.025 26.9485 169.762 26.4904C170.519 26.0323 171.116 25.3849 171.555 24.5484C172.013 23.6919 172.242 22.706 172.242 21.5906C172.242 20.4752 172.013 19.4993 171.555 18.6627C171.116 17.8062 170.519 17.149 169.762 16.6909C169.025 16.2327 168.218 16.0037 167.342 16.0037C166.466 16.0037 165.649 16.2327 164.892 16.6909C164.155 17.129 163.558 17.7764 163.1 18.6328C162.661 19.4694 162.442 20.4553 162.442 21.5906C162.442 22.706 162.661 23.6919 163.1 24.5484C163.558 25.4049 164.155 26.0621 164.892 26.5202C165.649 26.9584 166.466 27.1775 167.342 27.1775ZM182.455 29.478C181.379 29.478 180.403 29.2689 179.527 28.8506C178.671 28.4124 177.993 27.8149 177.495 27.058C177.017 26.2812 176.778 25.4148 176.778 24.4588C176.778 22.8853 177.366 21.6603 178.541 20.7839C179.736 19.9076 181.26 19.4694 183.112 19.4694C184.028 19.4694 184.855 19.569 185.592 19.7681C186.329 19.9673 186.916 20.1864 187.355 20.4254V19.6486C187.355 18.9316 187.165 18.2942 186.787 17.7365C186.428 17.1589 185.94 16.7207 185.323 16.422C184.706 16.1033 184.038 15.9439 183.321 15.9439C181.628 15.9439 180.334 16.6311 179.437 18.0054L177.316 16.6012C177.934 15.685 178.75 14.9779 179.766 14.48C180.782 13.9621 181.927 13.7032 183.202 13.7032C185.233 13.7032 186.837 14.2509 188.012 15.3464C189.187 16.4419 189.775 17.9158 189.775 19.7681V29H187.355V26.819H187.235C186.757 27.5759 186.11 28.2133 185.293 28.7311C184.477 29.2291 183.53 29.478 182.455 29.478ZM182.664 27.2373C183.461 27.2373 184.218 27.0281 184.935 26.6099C185.652 26.1916 186.229 25.6239 186.667 24.9069C187.126 24.1899 187.355 23.4131 187.355 22.5765C186.239 21.8595 184.955 21.501 183.501 21.501C182.246 21.501 181.24 21.7898 180.483 22.3674C179.746 22.9251 179.378 23.6421 179.378 24.5185C179.378 25.3152 179.706 25.9725 180.364 26.4904C181.021 26.9883 181.788 27.2373 182.664 27.2373ZM199.323 29.478C198.048 29.478 196.873 29.1394 195.797 28.4622C194.722 27.785 193.865 26.8489 193.228 25.6538C192.59 24.4388 192.272 23.0844 192.272 21.5906C192.272 20.0968 192.59 18.7523 193.228 17.5573C193.865 16.3423 194.722 15.3962 195.797 14.719C196.873 14.0418 198.048 13.7032 199.323 13.7032C200.478 13.7032 201.513 13.9621 202.43 14.48C203.346 14.9779 204.033 15.6053 204.491 16.3622H204.611L204.491 14.3306V7.60838H207.001V29H204.611V26.7891H204.491C204.033 27.5659 203.346 28.2133 202.43 28.7311C201.513 29.2291 200.478 29.478 199.323 29.478ZM199.711 27.1775C200.587 27.1775 201.394 26.9584 202.131 26.5202C202.888 26.0621 203.485 25.4049 203.924 24.5484C204.382 23.6919 204.611 22.706 204.611 21.5906C204.611 20.4553 204.382 19.4694 203.924 18.6328C203.485 17.7764 202.888 17.129 202.131 16.6909C201.394 16.2327 200.587 16.0037 199.711 16.0037C198.835 16.0037 198.018 16.2327 197.261 16.6909C196.524 17.149 195.927 17.8062 195.468 18.6627C195.03 19.4993 194.811 20.4752 194.811 21.5906C194.811 22.706 195.03 23.6919 195.468 24.5484C195.927 25.3849 196.524 26.0323 197.261 26.4904C198.018 26.9485 198.835 27.1775 199.711 27.1775ZM215.395 29.478C214.319 29.478 213.343 29.2689 212.467 28.8506C211.611 28.4124 210.933 27.8149 210.435 27.058C209.957 26.2812 209.718 25.4148 209.718 24.4588C209.718 22.8853 210.306 21.6603 211.481 20.7839C212.676 19.9076 214.2 19.4694 216.052 19.4694C216.968 19.4694 217.795 19.569 218.532 19.7681C219.269 19.9673 219.857 20.1864 220.295 20.4254V19.6486C220.295 18.9316 220.106 18.2942 219.727 17.7365C219.369 17.1589 218.881 16.7207 218.263 16.422C217.646 16.1033 216.978 15.9439 216.261 15.9439C214.568 15.9439 213.274 16.6311 212.377 18.0054L210.256 16.6012C210.874 15.685 211.69 14.9779 212.706 14.48C213.722 13.9621 214.867 13.7032 216.142 13.7032C218.173 13.7032 219.777 14.2509 220.952 15.3464C222.127 16.4419 222.715 17.9158 222.715 19.7681V29H220.295V26.819H220.175C219.697 27.5759 219.05 28.2133 218.233 28.7311C217.417 29.2291 216.471 29.478 215.395 29.478ZM215.604 27.2373C216.401 27.2373 217.158 27.0281 217.875 26.6099C218.592 26.1916 219.169 25.6239 219.608 24.9069C220.066 24.1899 220.295 23.4131 220.295 22.5765C219.179 21.8595 217.895 21.501 216.441 21.501C215.186 21.501 214.18 21.7898 213.423 22.3674C212.686 22.9251 212.318 23.6421 212.318 24.5185C212.318 25.3152 212.646 25.9725 213.304 26.4904C213.961 26.9883 214.728 27.2373 215.604 27.2373ZM226.194 14.1812H228.614V16.3921H228.734C229.152 15.6352 229.809 14.9978 230.706 14.48C231.602 13.9621 232.558 13.7032 233.574 13.7032C235.386 13.7032 236.761 14.231 237.697 15.2867C238.653 16.3423 239.131 17.7863 239.131 19.6188V29H236.621V20.0072C236.621 17.3382 235.376 16.0037 232.887 16.0037C232.09 16.0037 231.373 16.2327 230.735 16.6909C230.098 17.149 229.6 17.7465 229.242 18.4834C228.903 19.2204 228.734 19.9972 228.734 20.8138V29H226.194V14.1812Z" fill="#F5F5F5"/>
<path d="M14.7703 19.5012L24.8382 13.9729C25.402 13.6635 25.8962 13.2516 26.2926 12.7606C26.689 12.2696 26.9797 11.7093 27.1483 11.1115C27.3169 10.5137 27.3599 9.89024 27.275 9.27665C27.19 8.66306 26.9788 8.07138 26.6533 7.53539C26.3278 6.9994 25.8945 6.52959 25.378 6.1528C24.8615 5.77601 24.272 5.49962 23.6432 5.33939C23.0143 5.17917 22.3584 5.13825 21.713 5.21898C21.0675 5.29971 20.445 5.5005 19.8812 5.8099L2.47559 15.3803L14.7703 19.5012Z" fill="#EA4335"/>
<path d="M22.3603 33.7104C23.452 33.7114 24.5135 33.3697 25.38 32.7384C26.2465 32.1071 26.8695 31.2216 27.1524 30.2192C27.4352 29.2169 27.3621 28.1539 26.9443 27.1951C26.5265 26.2364 25.7874 25.4355 24.8418 24.9169L7.43615 15.3465C6.8723 15.0371 6.24986 14.8363 5.60437 14.7556C4.95889 14.6749 4.30299 14.7158 3.67414 14.876C3.04529 15.0362 2.45579 15.3126 1.93931 15.6894C1.42283 16.0662 0.989491 16.536 0.664012 17.072C0.338534 17.608 0.127286 18.1997 0.0423598 18.8133C-0.0425665 19.4269 0.000480957 20.0503 0.169036 20.6481C0.337591 21.2459 0.628363 21.8063 1.02474 22.2972C1.42111 22.7882 1.91534 23.2001 2.4792 23.5095L19.8848 33.0799C20.6364 33.4955 21.4909 33.7131 22.3603 33.7104Z" fill="#4285F4"/>
<path d="M39.676 33.7105C40.546 33.7115 41.4005 33.4919 42.1515 33.0744L59.5571 23.504L47.4224 19.2817L37.1946 24.9114C36.246 25.4287 35.504 26.2297 35.0842 27.1896C34.6643 28.1496 34.5902 29.2145 34.8734 30.2186C35.1566 31.2228 35.7811 32.1097 36.6498 32.7413C37.5184 33.3728 38.5824 33.7136 39.676 33.7105Z" fill="#FBBC04"/>
<path d="M57.0768 24.1399C58.168 24.1383 59.2281 23.795 60.0933 23.163C60.9585 22.531 61.5805 21.6456 61.863 20.6438C62.1456 19.642 62.0729 18.5795 61.6563 17.6209C61.2396 16.6623 60.5023 15.8609 59.5583 15.3408L42.1527 5.77034C41.5888 5.46095 40.9664 5.26016 40.3209 5.17943C39.6754 5.0987 39.0195 5.13962 38.3907 5.29984C37.7618 5.46007 37.1723 5.73646 36.6559 6.11325C36.1394 6.49004 35.706 6.95984 35.3806 7.49583C35.0551 8.03182 34.8438 8.6235 34.7589 9.2371C34.674 9.85069 34.717 10.4742 34.8856 11.072C35.0541 11.6697 35.3449 12.2301 35.7413 12.721C36.1377 13.212 36.6319 13.6239 37.1957 13.9333L54.6013 23.5037C55.3535 23.9185 56.2073 24.1379 57.0768 24.1399Z" fill="#0F9D58"/>
</svg>
