<svg width="63" height="29" viewBox="0 0 63 29" fill="none" xmlns="http://www.w3.org/2000/svg">
<path d="M14.7703 14.5012L24.8382 8.97289C25.402 8.6635 25.8962 8.25155 26.2926 7.7606C26.689 7.26964 26.9797 6.70927 27.1483 6.11149C27.3169 5.51371 27.3599 4.89024 27.275 4.27665C27.19 3.66306 26.9788 3.07138 26.6533 2.53539C26.3278 1.9994 25.8945 1.52959 25.378 1.1528C24.8615 0.776008 24.272 0.499621 23.6432 0.339395C23.0143 0.179168 22.3584 0.138248 21.713 0.218978C21.0675 0.299707 20.445 0.5005 19.8812 0.809895L2.47559 10.3803L14.7703 14.5012Z" fill="#EA4335"/>
<path d="M22.3603 28.7104C23.452 28.7114 24.5135 28.3697 25.38 27.7384C26.2465 27.1071 26.8695 26.2216 27.1524 25.2192C27.4352 24.2169 27.3621 23.1539 26.9443 22.1951C26.5265 21.2364 25.7874 20.4355 24.8418 19.9169L7.43615 10.3465C6.8723 10.0371 6.24986 9.83633 5.60437 9.7556C4.95889 9.67487 4.30299 9.71578 3.67414 9.876C3.04529 10.0362 2.45579 10.3126 1.93931 10.6894C1.42283 11.0662 0.989491 11.536 0.664012 12.072C0.338534 12.608 0.127286 13.1997 0.0423598 13.8133C-0.0425665 14.4269 0.000480957 15.0503 0.169036 15.6481C0.337591 16.2459 0.628363 16.8063 1.02474 17.2972C1.42111 17.7882 1.91534 18.2001 2.4792 18.5095L19.8848 28.0799C20.6364 28.4955 21.4909 28.7131 22.3603 28.7104Z" fill="#4285F4"/>
<path d="M39.676 28.7105C40.546 28.7115 41.4005 28.4919 42.1515 28.0744L59.5571 18.504L47.4224 14.2817L37.1946 19.9114C36.246 20.4287 35.504 21.2297 35.0842 22.1896C34.6643 23.1496 34.5902 24.2145 34.8734 25.2186C35.1566 26.2228 35.7811 27.1097 36.6498 27.7413C37.5184 28.3728 38.5824 28.7136 39.676 28.7105Z" fill="#FBBC04"/>
<path d="M57.0768 19.1399C58.168 19.1383 59.2281 18.795 60.0933 18.163C60.9585 17.531 61.5805 16.6456 61.863 15.6438C62.1456 14.642 62.0729 13.5795 61.6563 12.6209C61.2396 11.6623 60.5023 10.8609 59.5583 10.3408L42.1527 0.770344C41.5888 0.460949 40.9664 0.260157 40.3209 0.179427C39.6754 0.098697 39.0195 0.139617 38.3907 0.299844C37.7618 0.46007 37.1723 0.736457 36.6559 1.11325C36.1394 1.49004 35.706 1.95984 35.3806 2.49583C35.0551 3.03182 34.8438 3.6235 34.7589 4.2371C34.674 4.85069 34.717 5.47418 34.8856 6.07196C35.0541 6.66973 35.3449 7.23008 35.7413 7.72104C36.1377 8.212 36.6319 8.62394 37.1957 8.93334L54.6013 18.5037C55.3535 18.9185 56.2073 19.1379 57.0768 19.1399Z" fill="#0F9D58"/>
</svg>
