<svg width="48" height="48" viewBox="0 0 48 48" fill="none" xmlns="http://www.w3.org/2000/svg">
<path d="M24 0C17.6586 0.0765076 11.5984 2.62964 7.11403 7.11403C2.62964 11.5984 0.0765076 17.6586 0 24C0.0765076 30.3414 2.62964 36.4016 7.11403 40.886C11.5984 45.3704 17.6586 47.9235 24 48C30.3414 47.9235 36.4016 45.3704 40.886 40.886C45.3704 36.4016 47.9235 30.3414 48 24C47.9235 17.6586 45.3704 11.5984 40.886 7.11403C36.4016 2.62964 30.3414 0.0765076 24 0ZM37.7143 25.7143H25.7143V37.7143H22.2857V25.7143H10.2857V22.2857H22.2857V10.2857H25.7143V22.2857H37.7143V25.7143Z" fill="#0E1921"/>
</svg>
